<?xml version="1.0" encoding="utf-8"?>
<!-- Generator: Adobe Illustrator 18.1.1, SVG Export Plug-In . SVG Version: 6.00 Build 0)  -->
<svg version="1.1" id="Layer_1" xmlns="http://www.w3.org/2000/svg" xmlns:xlink="http://www.w3.org/1999/xlink" x="0px" y="0px"
	 viewBox="0 0 265.9 85.5" enable-background="new 0 0 265.9 85.5" xml:space="preserve">
<g>
	<path fill="#FFFFFF" d="M51.6,22.9L33.6,85.5H17.3L0,22.9h12.5l13.3,55.7l14.2-55.7H51.6z"/>
	<path fill="#FFFFFF" d="M70.1,85.5H58.6V22.9h11.5V85.5z"/>
	<path fill="#FFFFFF" d="M101.8,29.7c-2,0-3.7,0.2-4.9,0.5c-1.2,0.3-2.2,0.9-2.9,1.7c-0.7,0.9-1.1,2.1-1.4,3.7
		c-0.3,1.6-0.4,3.6-0.4,6.1v25.2c0,2.5,0.1,4.5,0.4,6.1c0.3,1.6,0.7,2.8,1.4,3.7c0.7,0.9,1.6,1.4,2.9,1.7c1.2,0.3,2.9,0.5,4.9,0.5
		h14.9V4.2h11.5v81.4H97.7c-3.4,0-6.2-0.3-8.4-1c-2.2-0.7-3.9-1.8-5.2-3.3c-1.3-1.5-2.2-3.5-2.7-5.9c-0.5-2.4-0.7-5.4-0.7-8.9V42.1
		c0-3.5,0.2-6.4,0.7-8.9c0.5-2.4,1.4-4.4,2.7-6c1.3-1.5,3.1-2.7,5.2-3.3c2.2-0.7,5-1,8.4-1h12.8v6.8H101.8z"/>
	<path fill="#EE3824" d="M151,85.5h-11.5V4.2H151V85.5z"/>
	<path fill="#EE3824" d="M193.5,22.9c3.4,0,6.2,0.3,8.4,1c2.2,0.7,3.9,1.8,5.2,3.3c1.3,1.5,2.2,3.5,2.7,6c0.5,2.4,0.7,5.4,0.7,8.9
		v24.3c0,3.5-0.2,6.5-0.7,8.9c-0.5,2.4-1.4,4.4-2.7,5.9c-1.3,1.5-3.1,2.7-5.2,3.3c-2.2,0.7-5,1-8.4,1h-15.1c-3.4,0-6.2-0.3-8.4-1
		c-2.2-0.7-3.9-1.8-5.2-3.3c-1.3-1.5-2.2-3.5-2.7-5.9c-0.5-2.4-0.7-5.4-0.7-8.9V42.1c0-3.5,0.2-6.4,0.7-8.9c0.5-2.4,1.4-4.4,2.7-6
		c1.3-1.5,3.1-2.7,5.2-3.3c2.2-0.7,5-1,8.4-1H193.5z M172.9,66.8c0,2.5,0.1,4.5,0.4,6.1c0.3,1.6,0.7,2.8,1.4,3.7
		c0.7,0.9,1.6,1.4,2.9,1.7c1.2,0.3,2.9,0.5,4.9,0.5h7c2,0,3.7-0.2,4.9-0.5c1.2-0.3,2.2-0.9,2.9-1.7c0.7-0.9,1.1-2.1,1.4-3.7
		c0.3-1.6,0.4-3.6,0.4-6.1V41.6c0-2.5-0.1-4.5-0.4-6.1c-0.3-1.6-0.7-2.8-1.4-3.7c-0.7-0.9-1.6-1.4-2.9-1.7c-1.2-0.3-2.9-0.5-4.9-0.5
		h-7c-2,0-3.7,0.2-4.9,0.5c-1.2,0.3-2.2,0.9-2.9,1.7c-0.7,0.9-1.1,2.1-1.4,3.7c-0.3,1.6-0.4,3.6-0.4,6.1V66.8z"/>
	<path fill="#EE3824" d="M229.5,22.9l12.2,22.7l12.6-22.7h8.9l-16.9,29.3l17.8,33.3h-13.5l-13-26.4l-14.8,26.4h-8.8l18.8-33.2
		L216,22.9H229.5z"/>
</g>
<circle fill="#2F8DCC" cx="64.3" cy="9" r="9"/>
</svg>
